<svg xmlns="http://www.w3.org/2000/svg" xmlns:xlink="http://www.w3.org/1999/xlink" viewBox="0 0 1077.17 386.68"><defs><style>.cls-1{isolation:isolate;}.cls-2{font-size:199px;font-family:Avenir-Medium, Avenir;}.cls-11,.cls-2,.cls-5,.cls-7{fill:#6b6b6b;}.cls-3{fill:url(#New_Gradient_Swatch_1);}.cls-4{fill:url(#New_Gradient_Swatch_2);}.cls-5{font-size:60px;font-family:Avenir-Roman, Avenir;}.cls-6{mix-blend-mode:screen;}.cls-10,.cls-7,.cls-8,.cls-9{mix-blend-mode:multiply;}.cls-8{fill:#0071ce;}.cls-9{fill:url(#radial-gradient);}</style><linearGradient id="New_Gradient_Swatch_1" x1="553.74" y1="254.79" x2="1032.74" y2="254.79" gradientUnits="userSpaceOnUse"><stop offset="0" stop-color="#fff" stop-opacity="0"/><stop offset="1" stop-color="#8cc63f"/></linearGradient><linearGradient id="New_Gradient_Swatch_2" x1="722" y1="502" x2="1201" y2="502" gradientUnits="userSpaceOnUse"><stop offset="0" stop-color="#fff" stop-opacity="0"/><stop offset="0.01" stop-color="#fafdf7" stop-opacity="0.04"/><stop offset="0.03" stop-color="#e6f3d5" stop-opacity="0.22"/><stop offset="0.07" stop-color="#d4eab8" stop-opacity="0.37"/><stop offset="0.1" stop-color="#c5e39f" stop-opacity="0.5"/><stop offset="0.14" stop-color="#b9dd8b" stop-opacity="0.6"/><stop offset="0.19" stop-color="#b0d87c" stop-opacity="0.68"/><stop offset="0.25" stop-color="#aad571" stop-opacity="0.74"/><stop offset="0.33" stop-color="#a6d46b" stop-opacity="0.77"/><stop offset="0.55" stop-color="#a5d369" stop-opacity="0.78"/><stop offset="1" stop-color="#8cc63f"/></linearGradient><radialGradient id="radial-gradient" cx="570.73" cy="440.68" r="167.71" gradientUnits="userSpaceOnUse"><stop offset="0" stop-color="#a4cb2b"/><stop offset="1" stop-color="#6fa715"/></radialGradient></defs><title>helix</title><g class="cls-1"><g id="Layer_1" data-name="Layer 1"><text class="cls-2" transform="translate(553.55 236.73)">Helix</text><line class="cls-3" x1="1032.74" y1="254.79" x2="553.74" y2="254.79"/><path class="cls-4" d="M1201,502.45l-59.87.94-59.87.86L961.5,505.6l-59.87.85q-29.94.43-59.87,0L811.81,506c-10-.27-20-.45-29.94-.81-20-.63-39.92-1.43-59.87-2.72v-.9c20-1.29,39.92-2.09,59.88-2.72,10-.36,20-.54,29.94-.81l29.94-.53q29.94-.39,59.88,0l59.88.85,119.75,1.35,59.88.86,59.88.94Z" transform="translate(-168.26 -247.21)"/><text class="cls-5" transform="translate(532.55 320.73)">By San Pablo Digital</text><g class="cls-6"><path class="cls-7" d="M481.91,444A43.6,43.6,0,0,1,453,367.73a77.78,77.78,0,1,0,61.58,61.6A43.57,43.57,0,0,1,481.91,444Z" transform="translate(-168.26 -247.21)"/><path class="cls-8" d="M230.23,444.12c14.22-27.2,57.58-98.12,135.69-127.43A146.38,146.38,0,0,0,308.15,511.3q14.67-8,29.1-17.18a112.73,112.73,0,0,1,155.67-148.7q9.72-14,18.32-28.36c-.53-.31-1.05-.62-1.59-.92.59.21,1.15.45,1.74.67a471.11,471.11,0,0,0,26.25-50.62,262.51,262.51,0,0,0-99.37-19C253,247.21,176,425.5,172.85,433.1L168.26,444,172.85,455c1.53,3.64,20.05,46.56,59.34,90.24A495.44,495.44,0,0,0,288,521.79C257.49,492.54,238.72,460.6,230.23,444.12Z" transform="translate(-168.26 -247.21)"/><path class="cls-9" d="M703.71,455,708.3,444l-4.59-10.94c-3.12-7.43-77-178.37-253.81-185.62a438.13,438.13,0,0,0-16.74,83.91c1.7-.08,3.4-.13,5.12-.13a112.78,112.78,0,0,1,24.16,223,503.9,503.9,0,0,0,37.34,79.67C640.76,600.88,700.9,461.66,703.71,455Zm-194,116.95a146.43,146.43,0,0,0-.08-255.78C588.9,345,632.15,416.43,646.36,444,632.13,471.68,588.9,543,509.73,571.92Z" transform="translate(-168.26 -247.21)"/></g><g class="cls-10"><rect class="cls-11" x="167.98" y="295.38" width="32.13" height="7.62"/><rect class="cls-11" x="248.19" y="295.38" width="20.94" height="7.62"/><rect class="cls-11" x="205.07" y="295.38" width="16.07" height="7.62"/><rect class="cls-11" x="228.85" y="295.38" width="8.03" height="7.62"/><rect class="cls-11" x="189.25" y="306.94" width="29.61" height="7.62"/><rect class="cls-11" x="229.16" y="306.94" width="14.17" height="7.62"/><rect class="cls-11" x="173.19" y="306.94" width="8.03" height="7.62"/><rect class="cls-11" x="248.86" y="306.94" width="15.06" height="7.62"/></g></g></g></svg>
